{
	"asset":{
		"generator":"Khronos glTF Blender I/O v3.6.27",
		"version":"2.0"
	},
	"scene":0,
	"scenes":[
		{
			"name":"Scene",
			"nodes":[
				0
			]
		}
	],
	"nodes":[
		{
			"mesh":0,
			"name":"schiff",
			"rotation":[
				0.7071068286895752,
				0,
				0,
				0.7071068286895752
			],
			"scale":[
				2,
				2,
				2
			],
			"translation":[
				0.20000000298023224,
				0,
				0
			]
		}
	],
	"animations":[
		{
			"channels":[
				{
					"sampler":0,
					"target":{
						"node":0,
						"path":"translation"
					}
				},
				{
					"sampler":1,
					"target":{
						"node":0,
						"path":"rotation"
					}
				}
			],
			"name":"schiffAction",
			"samplers":[
				{
					"input":4,
					"interpolation":"LINEAR",
					"output":5
				},
				{
					"input":4,
					"interpolation":"LINEAR",
					"output":6
				}
			]
		}
	],
	"materials":[
		{
			"alphaCutoff":0.5,
			"alphaMode":"MASK",
			"doubleSided":true,
			"name":"schiff_material",
			"pbrMetallicRoughness":{
				"baseColorTexture":{
					"index":0
				},
				"metallicFactor":0,
				"roughnessFactor":0.5
			}
		}
	],
	"meshes":[
		{
			"name":"Plane.005",
			"primitives":[
				{
					"attributes":{
						"POSITION":0,
						"NORMAL":1,
						"TEXCOORD_0":2
					},
					"indices":3,
					"material":0
				}
			]
		}
	],
	"textures":[
		{
			"sampler":0,
			"source":0
		}
	],
	"images":[
		{
			"mimeType":"image/png",
			"name":"schiff",
			"uri":"schiff.png"
		}
	],
	"accessors":[
		{
			"bufferView":0,
			"componentType":5126,
			"count":34,
			"max":[
				0.7261765003204346,
				-4.371138828673793e-08,
				0
			],
			"min":[
				-1.2738234996795654,
				-4.371138828673793e-08,
				-2
			],
			"type":"VEC3"
		},
		{
			"bufferView":1,
			"componentType":5126,
			"count":34,
			"type":"VEC3"
		},
		{
			"bufferView":2,
			"componentType":5126,
			"count":34,
			"type":"VEC2"
		},
		{
			"bufferView":3,
			"componentType":5123,
			"count":120,
			"type":"SCALAR"
		},
		{
			"bufferView":4,
			"componentType":5126,
			"count":41,
			"max":[
				1.6666666666666667
			],
			"min":[
				0
			],
			"type":"SCALAR"
		},
		{
			"bufferView":5,
			"componentType":5126,
			"count":41,
			"type":"VEC3"
		},
		{
			"bufferView":6,
			"componentType":5126,
			"count":41,
			"type":"VEC4"
		}
	],
	"bufferViews":[
		{
			"buffer":0,
			"byteLength":408,
			"byteOffset":0,
			"target":34962
		},
		{
			"buffer":0,
			"byteLength":408,
			"byteOffset":408,
			"target":34962
		},
		{
			"buffer":0,
			"byteLength":272,
			"byteOffset":816,
			"target":34962
		},
		{
			"buffer":0,
			"byteLength":240,
			"byteOffset":1088,
			"target":34963
		},
		{
			"buffer":0,
			"byteLength":164,
			"byteOffset":1328
		},
		{
			"buffer":0,
			"byteLength":492,
			"byteOffset":1492
		},
		{
			"buffer":0,
			"byteLength":656,
			"byteOffset":1984
		}
	],
	"samplers":[
		{
			"magFilter":9729,
			"minFilter":9987
		}
	],
	"buffers":[
		{
			"byteLength":2640,
			"uri":"szene1_schiff.bin"
		}
	]
}
