{
	"asset":{
		"generator":"Khronos glTF Blender I/O v3.6.27",
		"version":"2.0"
	},
	"scene":0,
	"scenes":[
		{
			"name":"Scene",
			"nodes":[
				0
			]
		}
	],
	"nodes":[
		{
			"mesh":0,
			"name":"frau1",
			"rotation":[
				0.7071068286895752,
				0,
				0,
				0.7071068286895752
			],
			"translation":[
				0,
				0,
				-0.05000000074505806
			]
		}
	],
	"animations":[
		{
			"channels":[
				{
					"sampler":0,
					"target":{
						"node":0,
						"path":"scale"
					}
				}
			],
			"name":"frau1Action.001",
			"samplers":[
				{
					"input":20,
					"interpolation":"LINEAR",
					"output":21
				}
			]
		}
	],
	"materials":[
		{
			"alphaMode":"BLEND",
			"doubleSided":true,
			"name":"frau1_material",
			"pbrMetallicRoughness":{
				"baseColorTexture":{
					"index":0
				},
				"metallicFactor":0,
				"roughnessFactor":0.5
			}
		},
		{
			"alphaMode":"BLEND",
			"doubleSided":true,
			"name":"mann2_amterial",
			"pbrMetallicRoughness":{
				"baseColorTexture":{
					"index":1
				},
				"metallicFactor":0,
				"roughnessFactor":0.5
			}
		},
		{
			"alphaMode":"BLEND",
			"doubleSided":true,
			"name":"soldat_material",
			"pbrMetallicRoughness":{
				"baseColorTexture":{
					"index":2
				},
				"metallicFactor":0,
				"roughnessFactor":0.5
			}
		},
		{
			"alphaMode":"BLEND",
			"doubleSided":true,
			"name":"mann1_material",
			"pbrMetallicRoughness":{
				"baseColorTexture":{
					"index":3
				},
				"metallicFactor":0,
				"roughnessFactor":0.5
			}
		},
		{
			"alphaMode":"BLEND",
			"doubleSided":true,
			"name":"kind_material.001",
			"pbrMetallicRoughness":{
				"baseColorTexture":{
					"index":4
				},
				"metallicFactor":0,
				"roughnessFactor":0.5
			}
		},
		{
			"alphaMode":"BLEND",
			"doubleSided":true,
			"name":"frau2_material",
			"pbrMetallicRoughness":{
				"baseColorTexture":{
					"index":5
				},
				"metallicFactor":0,
				"roughnessFactor":0.5
			}
		}
	],
	"meshes":[
		{
			"name":"Plane.014",
			"primitives":[
				{
					"attributes":{
						"POSITION":0,
						"NORMAL":1,
						"TEXCOORD_0":2
					},
					"indices":3,
					"material":0
				},
				{
					"attributes":{
						"POSITION":4,
						"NORMAL":5,
						"TEXCOORD_0":6
					},
					"indices":7,
					"material":1
				},
				{
					"attributes":{
						"POSITION":8,
						"NORMAL":9,
						"TEXCOORD_0":10
					},
					"indices":7,
					"material":2
				},
				{
					"attributes":{
						"POSITION":11,
						"NORMAL":12,
						"TEXCOORD_0":13
					},
					"indices":7,
					"material":3
				},
				{
					"attributes":{
						"POSITION":14,
						"NORMAL":15,
						"TEXCOORD_0":16
					},
					"indices":7,
					"material":4
				},
				{
					"attributes":{
						"POSITION":17,
						"NORMAL":18,
						"TEXCOORD_0":19
					},
					"indices":7,
					"material":5
				}
			]
		}
	],
	"textures":[
		{
			"sampler":0,
			"source":0
		},
		{
			"sampler":0,
			"source":1
		},
		{
			"sampler":0,
			"source":2
		},
		{
			"sampler":0,
			"source":3
		},
		{
			"sampler":0,
			"source":4
		},
		{
			"sampler":0,
			"source":5
		}
	],
	"images":[
		{
			"mimeType":"image/png",
			"name":"frau1",
			"uri":"frau1.png"
		},
		{
			"mimeType":"image/png",
			"name":"mann2",
			"uri":"mann2.png"
		},
		{
			"mimeType":"image/png",
			"name":"soldat",
			"uri":"soldat.png"
		},
		{
			"mimeType":"image/png",
			"name":"mann1",
			"uri":"mann1.png"
		},
		{
			"mimeType":"image/png",
			"name":"kind",
			"uri":"kind.png"
		},
		{
			"mimeType":"image/png",
			"name":"frau2",
			"uri":"frau2.png"
		}
	],
	"accessors":[
		{
			"bufferView":0,
			"componentType":5126,
			"count":36,
			"max":[
				1,
				-4.470348358154297e-08,
				0
			],
			"min":[
				-1,
				-4.470348358154297e-08,
				-2
			],
			"type":"VEC3"
		},
		{
			"bufferView":1,
			"componentType":5126,
			"count":36,
			"type":"VEC3"
		},
		{
			"bufferView":2,
			"componentType":5126,
			"count":36,
			"type":"VEC2"
		},
		{
			"bufferView":3,
			"componentType":5123,
			"count":150,
			"type":"SCALAR"
		},
		{
			"bufferView":4,
			"componentType":5126,
			"count":4,
			"max":[
				0.9951635003089905,
				0.3499999940395355,
				-1.5151712773331383e-08
			],
			"min":[
				-0.9951635003089905,
				0.3499999940395355,
				-1.9935824871063232
			],
			"type":"VEC3"
		},
		{
			"bufferView":5,
			"componentType":5126,
			"count":4,
			"type":"VEC3"
		},
		{
			"bufferView":6,
			"componentType":5126,
			"count":4,
			"type":"VEC2"
		},
		{
			"bufferView":7,
			"componentType":5123,
			"count":6,
			"type":"SCALAR"
		},
		{
			"bufferView":8,
			"componentType":5126,
			"count":4,
			"max":[
				0.9950686693191528,
				0.09999995678663254,
				-4.329060665497764e-09
			],
			"min":[
				-0.9950686693191528,
				0.09999995678663254,
				-2.0032260417938232
			],
			"type":"VEC3"
		},
		{
			"bufferView":9,
			"componentType":5126,
			"count":4,
			"type":"VEC3"
		},
		{
			"bufferView":10,
			"componentType":5126,
			"count":4,
			"type":"VEC2"
		},
		{
			"bufferView":11,
			"componentType":5126,
			"count":4,
			"max":[
				0.9961587190628052,
				-0.1000000536441803,
				4.329060665497764e-09
			],
			"min":[
				-0.9961587190628052,
				-0.1000000536441803,
				-2.010458469390869
			],
			"type":"VEC3"
		},
		{
			"bufferView":12,
			"componentType":5126,
			"count":4,
			"type":"VEC3"
		},
		{
			"bufferView":13,
			"componentType":5126,
			"count":4,
			"type":"VEC2"
		},
		{
			"bufferView":14,
			"componentType":5126,
			"count":4,
			"max":[
				0.9961587190628052,
				-0.20000003278255463,
				8.658121330995527e-09
			],
			"min":[
				-0.9961587190628052,
				-0.20000003278255463,
				-1.9870145320892334
			],
			"type":"VEC3"
		},
		{
			"bufferView":15,
			"componentType":5126,
			"count":4,
			"type":"VEC3"
		},
		{
			"bufferView":16,
			"componentType":5126,
			"count":4,
			"type":"VEC2"
		},
		{
			"bufferView":17,
			"componentType":5126,
			"count":4,
			"max":[
				0.9958685636520386,
				0.2999999523162842,
				-1.2987181108314871e-08
			],
			"min":[
				-0.9958685636520386,
				0.2999999523162842,
				-2.001796245574951
			],
			"type":"VEC3"
		},
		{
			"bufferView":18,
			"componentType":5126,
			"count":4,
			"type":"VEC3"
		},
		{
			"bufferView":19,
			"componentType":5126,
			"count":4,
			"type":"VEC2"
		},
		{
			"bufferView":20,
			"componentType":5126,
			"count":41,
			"max":[
				1.6666666666666667
			],
			"min":[
				0
			],
			"type":"SCALAR"
		},
		{
			"bufferView":21,
			"componentType":5126,
			"count":41,
			"type":"VEC3"
		}
	],
	"bufferViews":[
		{
			"buffer":0,
			"byteLength":432,
			"byteOffset":0,
			"target":34962
		},
		{
			"buffer":0,
			"byteLength":432,
			"byteOffset":432,
			"target":34962
		},
		{
			"buffer":0,
			"byteLength":288,
			"byteOffset":864,
			"target":34962
		},
		{
			"buffer":0,
			"byteLength":300,
			"byteOffset":1152,
			"target":34963
		},
		{
			"buffer":0,
			"byteLength":48,
			"byteOffset":1452,
			"target":34962
		},
		{
			"buffer":0,
			"byteLength":48,
			"byteOffset":1500,
			"target":34962
		},
		{
			"buffer":0,
			"byteLength":32,
			"byteOffset":1548,
			"target":34962
		},
		{
			"buffer":0,
			"byteLength":12,
			"byteOffset":1580,
			"target":34963
		},
		{
			"buffer":0,
			"byteLength":48,
			"byteOffset":1592,
			"target":34962
		},
		{
			"buffer":0,
			"byteLength":48,
			"byteOffset":1640,
			"target":34962
		},
		{
			"buffer":0,
			"byteLength":32,
			"byteOffset":1688,
			"target":34962
		},
		{
			"buffer":0,
			"byteLength":48,
			"byteOffset":1720,
			"target":34962
		},
		{
			"buffer":0,
			"byteLength":48,
			"byteOffset":1768,
			"target":34962
		},
		{
			"buffer":0,
			"byteLength":32,
			"byteOffset":1816,
			"target":34962
		},
		{
			"buffer":0,
			"byteLength":48,
			"byteOffset":1848,
			"target":34962
		},
		{
			"buffer":0,
			"byteLength":48,
			"byteOffset":1896,
			"target":34962
		},
		{
			"buffer":0,
			"byteLength":32,
			"byteOffset":1944,
			"target":34962
		},
		{
			"buffer":0,
			"byteLength":48,
			"byteOffset":1976,
			"target":34962
		},
		{
			"buffer":0,
			"byteLength":48,
			"byteOffset":2024,
			"target":34962
		},
		{
			"buffer":0,
			"byteLength":32,
			"byteOffset":2072,
			"target":34962
		},
		{
			"buffer":0,
			"byteLength":164,
			"byteOffset":2104
		},
		{
			"buffer":0,
			"byteLength":492,
			"byteOffset":2268
		}
	],
	"samplers":[
		{
			"magFilter":9729,
			"minFilter":9987
		}
	],
	"buffers":[
		{
			"byteLength":2760,
			"uri":"szene1_group.bin"
		}
	]
}
