{
	"asset":{
		"generator":"Khronos glTF Blender I/O v3.6.27",
		"version":"2.0"
	},
	"scene":0,
	"scenes":[
		{
			"name":"Scene",
			"nodes":[
				0
			]
		}
	],
	"nodes":[
		{
			"mesh":0,
			"name":"frau1",
			"rotation":[
				0.7071068286895752,
				0,
				0,
				0.7071068286895752
			],
			"translation":[
				0,
				0,
				-0.05000000074505806
			]
		}
	],
	"animations":[
		{
			"channels":[
				{
					"sampler":0,
					"target":{
						"node":0,
						"path":"scale"
					}
				}
			],
			"name":"frau1Action.001",
			"samplers":[
				{
					"input":22,
					"interpolation":"LINEAR",
					"output":23
				}
			]
		}
	],
	"materials":[
		{
			"alphaCutoff":0.25,
			"alphaMode":"MASK",
			"doubleSided":true,
			"name":"frau1_material",
			"pbrMetallicRoughness":{
				"baseColorTexture":{
					"index":0
				},
				"metallicFactor":0,
				"roughnessFactor":0.5
			}
		},
		{
			"alphaCutoff":0.25,
			"alphaMode":"MASK",
			"doubleSided":true,
			"name":"mann2_amterial",
			"pbrMetallicRoughness":{
				"baseColorTexture":{
					"index":1
				},
				"metallicFactor":0,
				"roughnessFactor":0.5
			}
		},
		{
			"alphaCutoff":0.25,
			"alphaMode":"MASK",
			"doubleSided":true,
			"name":"soldat_material",
			"pbrMetallicRoughness":{
				"baseColorTexture":{
					"index":2
				},
				"metallicFactor":0,
				"roughnessFactor":0.5
			}
		},
		{
			"alphaCutoff":0.25,
			"alphaMode":"MASK",
			"doubleSided":true,
			"name":"mann1_material",
			"pbrMetallicRoughness":{
				"baseColorTexture":{
					"index":3
				},
				"metallicFactor":0,
				"roughnessFactor":0.5
			}
		},
		{
			"alphaCutoff":0.25,
			"alphaMode":"MASK",
			"doubleSided":true,
			"name":"kind_material.001",
			"pbrMetallicRoughness":{
				"baseColorTexture":{
					"index":4
				},
				"metallicFactor":0,
				"roughnessFactor":0.5
			}
		},
		{
			"alphaCutoff":0.25,
			"alphaMode":"MASK",
			"doubleSided":true,
			"name":"frau2_material",
			"pbrMetallicRoughness":{
				"baseColorTexture":{
					"index":5
				},
				"metallicFactor":0,
				"roughnessFactor":0.5
			}
		}
	],
	"meshes":[
		{
			"name":"Plane.014",
			"primitives":[
				{
					"attributes":{
						"POSITION":0,
						"NORMAL":1,
						"TEXCOORD_0":2
					},
					"indices":3,
					"material":0
				},
				{
					"attributes":{
						"POSITION":4,
						"NORMAL":5,
						"TEXCOORD_0":6
					},
					"indices":7,
					"material":1
				},
				{
					"attributes":{
						"POSITION":8,
						"NORMAL":9,
						"TEXCOORD_0":10
					},
					"indices":11,
					"material":2
				},
				{
					"attributes":{
						"POSITION":12,
						"NORMAL":13,
						"TEXCOORD_0":14
					},
					"indices":15,
					"material":3
				},
				{
					"attributes":{
						"POSITION":16,
						"NORMAL":17,
						"TEXCOORD_0":18
					},
					"indices":15,
					"material":4
				},
				{
					"attributes":{
						"POSITION":19,
						"NORMAL":20,
						"TEXCOORD_0":21
					},
					"indices":7,
					"material":5
				}
			]
		}
	],
	"textures":[
		{
			"sampler":0,
			"source":0
		},
		{
			"sampler":0,
			"source":1
		},
		{
			"sampler":0,
			"source":2
		},
		{
			"sampler":0,
			"source":3
		},
		{
			"sampler":0,
			"source":4
		},
		{
			"sampler":0,
			"source":5
		}
	],
	"images":[
		{
			"mimeType":"image/png",
			"name":"frau1",
			"uri":"frau1.png"
		},
		{
			"mimeType":"image/png",
			"name":"mann2",
			"uri":"mann2.png"
		},
		{
			"mimeType":"image/png",
			"name":"soldat",
			"uri":"soldat.png"
		},
		{
			"mimeType":"image/png",
			"name":"mann1",
			"uri":"mann1.png"
		},
		{
			"mimeType":"image/png",
			"name":"kind",
			"uri":"kind.png"
		},
		{
			"mimeType":"image/png",
			"name":"frau2",
			"uri":"frau2.png"
		}
	],
	"accessors":[
		{
			"bufferView":0,
			"componentType":5126,
			"count":12,
			"max":[
				-0.12380953878164291,
				-4.470348358154297e-08,
				0
			],
			"min":[
				-0.6790697574615479,
				-4.470348358154297e-08,
				-1.2000000476837158
			],
			"type":"VEC3"
		},
		{
			"bufferView":1,
			"componentType":5126,
			"count":12,
			"type":"VEC3"
		},
		{
			"bufferView":2,
			"componentType":5126,
			"count":12,
			"type":"VEC2"
		},
		{
			"bufferView":3,
			"componentType":5123,
			"count":30,
			"type":"SCALAR"
		},
		{
			"bufferView":4,
			"componentType":5126,
			"count":4,
			"max":[
				0.4640448987483978,
				0.3499999940395355,
				-1.5293641908442623e-08
			],
			"min":[
				-0.18390487134456635,
				0.3499999940395355,
				-1.1517512798309326
			],
			"type":"VEC3"
		},
		{
			"bufferView":5,
			"componentType":5126,
			"count":4,
			"type":"VEC3"
		},
		{
			"bufferView":6,
			"componentType":5126,
			"count":4,
			"type":"VEC2"
		},
		{
			"bufferView":7,
			"componentType":5123,
			"count":6,
			"type":"SCALAR"
		},
		{
			"bufferView":8,
			"componentType":5126,
			"count":4,
			"max":[
				0.8520526885986328,
				0.09999995678663254,
				-4.369612227606012e-09
			],
			"min":[
				0.4565034508705139,
				0.09999995678663254,
				-1.1091967821121216
			],
			"type":"VEC3"
		},
		{
			"bufferView":9,
			"componentType":5126,
			"count":4,
			"type":"VEC3"
		},
		{
			"bufferView":10,
			"componentType":5126,
			"count":4,
			"type":"VEC2"
		},
		{
			"bufferView":11,
			"componentType":5123,
			"count":6,
			"type":"SCALAR"
		},
		{
			"bufferView":12,
			"componentType":5126,
			"count":4,
			"max":[
				-0.46751701831817627,
				-0.1000000536441803,
				4.3696117835168025e-09
			],
			"min":[
				-0.8453598022460938,
				-0.1000000536441803,
				-1.2301467657089233
			],
			"type":"VEC3"
		},
		{
			"bufferView":13,
			"componentType":5126,
			"count":4,
			"type":"VEC3"
		},
		{
			"bufferView":14,
			"componentType":5126,
			"count":4,
			"type":"VEC2"
		},
		{
			"bufferView":15,
			"componentType":5123,
			"count":6,
			"type":"SCALAR"
		},
		{
			"bufferView":16,
			"componentType":5126,
			"count":4,
			"max":[
				0.023180514574050903,
				-0.20000003278255463,
				8.739223567033605e-09
			],
			"min":[
				-0.33717113733291626,
				-0.20000003278255463,
				-0.7418959736824036
			],
			"type":"VEC3"
		},
		{
			"bufferView":17,
			"componentType":5126,
			"count":4,
			"type":"VEC3"
		},
		{
			"bufferView":18,
			"componentType":5126,
			"count":4,
			"type":"VEC2"
		},
		{
			"bufferView":19,
			"componentType":5126,
			"count":4,
			"max":[
				0.6012356281280518,
				0.2999999523162842,
				-1.3108834906461198e-08
			],
			"min":[
				0.05883479863405228,
				0.2999999523162842,
				-1.05417799949646
			],
			"type":"VEC3"
		},
		{
			"bufferView":20,
			"componentType":5126,
			"count":4,
			"type":"VEC3"
		},
		{
			"bufferView":21,
			"componentType":5126,
			"count":4,
			"type":"VEC2"
		},
		{
			"bufferView":22,
			"componentType":5126,
			"count":41,
			"max":[
				1.6666666666666667
			],
			"min":[
				0
			],
			"type":"SCALAR"
		},
		{
			"bufferView":23,
			"componentType":5126,
			"count":41,
			"type":"VEC3"
		}
	],
	"bufferViews":[
		{
			"buffer":0,
			"byteLength":144,
			"byteOffset":0,
			"target":34962
		},
		{
			"buffer":0,
			"byteLength":144,
			"byteOffset":144,
			"target":34962
		},
		{
			"buffer":0,
			"byteLength":96,
			"byteOffset":288,
			"target":34962
		},
		{
			"buffer":0,
			"byteLength":60,
			"byteOffset":384,
			"target":34963
		},
		{
			"buffer":0,
			"byteLength":48,
			"byteOffset":444,
			"target":34962
		},
		{
			"buffer":0,
			"byteLength":48,
			"byteOffset":492,
			"target":34962
		},
		{
			"buffer":0,
			"byteLength":32,
			"byteOffset":540,
			"target":34962
		},
		{
			"buffer":0,
			"byteLength":12,
			"byteOffset":572,
			"target":34963
		},
		{
			"buffer":0,
			"byteLength":48,
			"byteOffset":584,
			"target":34962
		},
		{
			"buffer":0,
			"byteLength":48,
			"byteOffset":632,
			"target":34962
		},
		{
			"buffer":0,
			"byteLength":32,
			"byteOffset":680,
			"target":34962
		},
		{
			"buffer":0,
			"byteLength":12,
			"byteOffset":712,
			"target":34963
		},
		{
			"buffer":0,
			"byteLength":48,
			"byteOffset":724,
			"target":34962
		},
		{
			"buffer":0,
			"byteLength":48,
			"byteOffset":772,
			"target":34962
		},
		{
			"buffer":0,
			"byteLength":32,
			"byteOffset":820,
			"target":34962
		},
		{
			"buffer":0,
			"byteLength":12,
			"byteOffset":852,
			"target":34963
		},
		{
			"buffer":0,
			"byteLength":48,
			"byteOffset":864,
			"target":34962
		},
		{
			"buffer":0,
			"byteLength":48,
			"byteOffset":912,
			"target":34962
		},
		{
			"buffer":0,
			"byteLength":32,
			"byteOffset":960,
			"target":34962
		},
		{
			"buffer":0,
			"byteLength":48,
			"byteOffset":992,
			"target":34962
		},
		{
			"buffer":0,
			"byteLength":48,
			"byteOffset":1040,
			"target":34962
		},
		{
			"buffer":0,
			"byteLength":32,
			"byteOffset":1088,
			"target":34962
		},
		{
			"buffer":0,
			"byteLength":164,
			"byteOffset":1120
		},
		{
			"buffer":0,
			"byteLength":492,
			"byteOffset":1284
		}
	],
	"samplers":[
		{
			"magFilter":9729,
			"minFilter":9987
		}
	],
	"buffers":[
		{
			"byteLength":1776,
			"uri":"szene1_group.bin"
		}
	]
}
