{
	"asset":{
		"generator":"Khronos glTF Blender I/O v3.6.27",
		"version":"2.0"
	},
	"scene":0,
	"scenes":[
		{
			"name":"Scene",
			"nodes":[
				0
			]
		}
	],
	"nodes":[
		{
			"mesh":0,
			"name":"x_layer1",
			"rotation":[
				0.5,
				0.5,
				-0.5,
				0.5
			],
			"translation":[
				-0.46252334117889404,
				1,
				0
			]
		}
	],
	"materials":[
		{
			"alphaMode":"BLEND",
			"doubleSided":true,
			"name":"x_layer_material",
			"pbrMetallicRoughness":{
				"baseColorTexture":{
					"index":0
				},
				"metallicFactor":0,
				"roughnessFactor":0.5
			}
		},
		{
			"alphaMode":"BLEND",
			"doubleSided":true,
			"name":"y_layer1_material",
			"pbrMetallicRoughness":{
				"baseColorTexture":{
					"index":1
				},
				"metallicFactor":0,
				"roughnessFactor":0.5
			}
		},
		{
			"alphaMode":"BLEND",
			"doubleSided":true,
			"name":"y_layer2_material",
			"pbrMetallicRoughness":{
				"baseColorTexture":{
					"index":2
				},
				"metallicFactor":0,
				"roughnessFactor":0.5
			}
		},
		{
			"alphaMode":"BLEND",
			"doubleSided":true,
			"name":"z_layer1_material",
			"pbrMetallicRoughness":{
				"baseColorTexture":{
					"index":3
				},
				"metallicFactor":0,
				"roughnessFactor":0.5
			}
		}
	],
	"meshes":[
		{
			"name":"Plane.019",
			"primitives":[
				{
					"attributes":{
						"POSITION":0,
						"NORMAL":1,
						"TEXCOORD_0":2
					},
					"indices":3,
					"material":0
				},
				{
					"attributes":{
						"POSITION":4,
						"NORMAL":5,
						"TEXCOORD_0":6
					},
					"indices":7,
					"material":1
				},
				{
					"attributes":{
						"POSITION":8,
						"NORMAL":9,
						"TEXCOORD_0":10
					},
					"indices":11,
					"material":2
				},
				{
					"attributes":{
						"POSITION":12,
						"NORMAL":13,
						"TEXCOORD_0":14
					},
					"indices":15,
					"material":3
				}
			]
		}
	],
	"textures":[
		{
			"sampler":0,
			"source":0
		},
		{
			"sampler":0,
			"source":1
		},
		{
			"sampler":0,
			"source":2
		},
		{
			"sampler":0,
			"source":3
		}
	],
	"images":[
		{
			"mimeType":"image/png",
			"name":"scene2_x_layer",
			"uri":"scene2_x_layer.png"
		},
		{
			"mimeType":"image/png",
			"name":"scene2_y_layer1",
			"uri":"scene2_y_layer1.png"
		},
		{
			"mimeType":"image/png",
			"name":"scene2_y_layer2",
			"uri":"scene2_y_layer2.png"
		},
		{
			"mimeType":"image/png",
			"name":"scene2_z_layer1",
			"uri":"scene2_z_layer1.png"
		}
	],
	"accessors":[
		{
			"bufferView":0,
			"componentType":5126,
			"count":12,
			"max":[
				0.3333333730697632,
				0.9114430546760559,
				1
			],
			"min":[
				-0.33333340287208557,
				0,
				0.6666666269302368
			],
			"type":"VEC3"
		},
		{
			"bufferView":1,
			"componentType":5126,
			"count":12,
			"type":"VEC3"
		},
		{
			"bufferView":2,
			"componentType":5126,
			"count":12,
			"type":"VEC2"
		},
		{
			"bufferView":3,
			"componentType":5123,
			"count":24,
			"type":"SCALAR"
		},
		{
			"bufferView":4,
			"componentType":5126,
			"count":25,
			"max":[
				6.720523515468813e-08,
				1.462523341178894,
				1
			],
			"min":[
				-4.935846575904179e-08,
				-0.537476658821106,
				0.33333325386047363
			],
			"type":"VEC3"
		},
		{
			"bufferView":5,
			"componentType":5126,
			"count":25,
			"type":"VEC3"
		},
		{
			"bufferView":6,
			"componentType":5126,
			"count":25,
			"type":"VEC2"
		},
		{
			"bufferView":7,
			"componentType":5123,
			"count":84,
			"type":"SCALAR"
		},
		{
			"bufferView":8,
			"componentType":5126,
			"count":18,
			"max":[
				0.2949792146682739,
				0.9743095636367798,
				1
			],
			"min":[
				0.29497915506362915,
				0.12918999791145325,
				0.27504438161849976
			],
			"type":"VEC3"
		},
		{
			"bufferView":9,
			"componentType":5126,
			"count":18,
			"type":"VEC3"
		},
		{
			"bufferView":10,
			"componentType":5126,
			"count":18,
			"type":"VEC2"
		},
		{
			"bufferView":11,
			"componentType":5123,
			"count":48,
			"type":"SCALAR"
		},
		{
			"bufferView":12,
			"componentType":5126,
			"count":21,
			"max":[
				0.3333333134651184,
				1.2958567142486572,
				0.718000054359436
			],
			"min":[
				-0.3333333730697632,
				-0.37081000208854675,
				0.7179999351501465
			],
			"type":"VEC3"
		},
		{
			"bufferView":13,
			"componentType":5126,
			"count":21,
			"type":"VEC3"
		},
		{
			"bufferView":14,
			"componentType":5126,
			"count":21,
			"type":"VEC2"
		},
		{
			"bufferView":15,
			"componentType":5123,
			"count":72,
			"type":"SCALAR"
		}
	],
	"bufferViews":[
		{
			"buffer":0,
			"byteLength":144,
			"byteOffset":0,
			"target":34962
		},
		{
			"buffer":0,
			"byteLength":144,
			"byteOffset":144,
			"target":34962
		},
		{
			"buffer":0,
			"byteLength":96,
			"byteOffset":288,
			"target":34962
		},
		{
			"buffer":0,
			"byteLength":48,
			"byteOffset":384,
			"target":34963
		},
		{
			"buffer":0,
			"byteLength":300,
			"byteOffset":432,
			"target":34962
		},
		{
			"buffer":0,
			"byteLength":300,
			"byteOffset":732,
			"target":34962
		},
		{
			"buffer":0,
			"byteLength":200,
			"byteOffset":1032,
			"target":34962
		},
		{
			"buffer":0,
			"byteLength":168,
			"byteOffset":1232,
			"target":34963
		},
		{
			"buffer":0,
			"byteLength":216,
			"byteOffset":1400,
			"target":34962
		},
		{
			"buffer":0,
			"byteLength":216,
			"byteOffset":1616,
			"target":34962
		},
		{
			"buffer":0,
			"byteLength":144,
			"byteOffset":1832,
			"target":34962
		},
		{
			"buffer":0,
			"byteLength":96,
			"byteOffset":1976,
			"target":34963
		},
		{
			"buffer":0,
			"byteLength":252,
			"byteOffset":2072,
			"target":34962
		},
		{
			"buffer":0,
			"byteLength":252,
			"byteOffset":2324,
			"target":34962
		},
		{
			"buffer":0,
			"byteLength":168,
			"byteOffset":2576,
			"target":34962
		},
		{
			"buffer":0,
			"byteLength":144,
			"byteOffset":2744,
			"target":34963
		}
	],
	"samplers":[
		{
			"magFilter":9729,
			"minFilter":9987
		}
	],
	"buffers":[
		{
			"byteLength":2888,
			"uri":"scene2_small.bin"
		}
	]
}
