{
	"asset":{
		"generator":"Khronos glTF Blender I/O v3.6.27",
		"version":"2.0"
	},
	"scene":0,
	"scenes":[
		{
			"name":"Scene",
			"nodes":[
				0
			]
		}
	],
	"nodes":[
		{
			"mesh":0,
			"name":"z_layer",
			"translation":[
				0,
				0.28200000524520874,
				0
			]
		}
	],
	"materials":[
		{
			"alphaCutoff":0.5,
			"alphaMode":"MASK",
			"doubleSided":true,
			"name":"z_layer1_material",
			"pbrMetallicRoughness":{
				"baseColorTexture":{
					"index":0
				},
				"metallicFactor":0,
				"roughnessFactor":0.5
			}
		},
		{
			"alphaCutoff":0.5,
			"alphaMode":"MASK",
			"doubleSided":true,
			"name":"y_layer1_material",
			"pbrMetallicRoughness":{
				"baseColorTexture":{
					"index":1
				},
				"metallicFactor":0,
				"roughnessFactor":0.5
			}
		},
		{
			"alphaCutoff":0.5,
			"alphaMode":"MASK",
			"doubleSided":true,
			"name":"x_layer_material",
			"pbrMetallicRoughness":{
				"baseColorTexture":{
					"index":2
				},
				"metallicFactor":0,
				"roughnessFactor":0.5
			}
		},
		{
			"alphaCutoff":0.5,
			"alphaMode":"MASK",
			"doubleSided":true,
			"name":"y_layer2_material",
			"pbrMetallicRoughness":{
				"baseColorTexture":{
					"index":3
				},
				"metallicFactor":0,
				"roughnessFactor":0.5
			}
		}
	],
	"meshes":[
		{
			"name":"Plane.021",
			"primitives":[
				{
					"attributes":{
						"POSITION":0,
						"NORMAL":1,
						"TEXCOORD_0":2
					},
					"indices":3,
					"material":0
				},
				{
					"attributes":{
						"POSITION":4,
						"NORMAL":5,
						"TEXCOORD_0":6
					},
					"indices":7,
					"material":1
				},
				{
					"attributes":{
						"POSITION":8,
						"NORMAL":9,
						"TEXCOORD_0":10
					},
					"indices":11,
					"material":2
				},
				{
					"attributes":{
						"POSITION":12,
						"NORMAL":13,
						"TEXCOORD_0":14
					},
					"indices":15,
					"material":3
				}
			]
		}
	],
	"textures":[
		{
			"sampler":0,
			"source":0
		},
		{
			"sampler":0,
			"source":1
		},
		{
			"sampler":0,
			"source":2
		},
		{
			"sampler":0,
			"source":3
		}
	],
	"images":[
		{
			"mimeType":"image/png",
			"name":"scene2_z_layer1",
			"uri":"scene2_z_layer1.png"
		},
		{
			"mimeType":"image/png",
			"name":"scene2_y_layer1",
			"uri":"scene2_y_layer1.png"
		},
		{
			"mimeType":"image/png",
			"name":"scene2_x_layer",
			"uri":"scene2_x_layer.png"
		},
		{
			"mimeType":"image/png",
			"name":"scene2_y_layer2",
			"uri":"scene2_y_layer2.png"
		}
	],
	"accessors":[
		{
			"bufferView":0,
			"componentType":5126,
			"count":21,
			"max":[
				0.8333333134651184,
				0,
				0.3333333730697632
			],
			"min":[
				-0.8333333730697632,
				0,
				-0.3333333730697632
			],
			"type":"VEC3"
		},
		{
			"bufferView":1,
			"componentType":5126,
			"count":21,
			"type":"VEC3"
		},
		{
			"bufferView":2,
			"componentType":5126,
			"count":21,
			"type":"VEC2"
		},
		{
			"bufferView":3,
			"componentType":5123,
			"count":72,
			"type":"SCALAR"
		},
		{
			"bufferView":4,
			"componentType":5126,
			"count":25,
			"max":[
				1,
				0.38466671109199524,
				-1.457046039377019e-08
			],
			"min":[
				-1,
				-0.28200000524520874,
				-4.371138828673793e-08
			],
			"type":"VEC3"
		},
		{
			"bufferView":5,
			"componentType":5126,
			"count":25,
			"type":"VEC3"
		},
		{
			"bufferView":6,
			"componentType":5126,
			"count":25,
			"type":"VEC2"
		},
		{
			"bufferView":7,
			"componentType":5123,
			"count":84,
			"type":"SCALAR"
		},
		{
			"bufferView":8,
			"componentType":5126,
			"count":12,
			"max":[
				0.44891971349716187,
				0.05133336782455444,
				0.3333333730697632
			],
			"min":[
				-0.4625234007835388,
				-0.28200000524520874,
				-0.3333333730697632
			],
			"type":"VEC3"
		},
		{
			"bufferView":9,
			"componentType":5126,
			"count":12,
			"type":"VEC3"
		},
		{
			"bufferView":10,
			"componentType":5126,
			"count":12,
			"type":"VEC2"
		},
		{
			"bufferView":11,
			"componentType":5123,
			"count":24,
			"type":"SCALAR"
		},
		{
			"bufferView":12,
			"componentType":5126,
			"count":18,
			"max":[
				0.511786162853241,
				0.4429555833339691,
				-0.29497918486595154
			],
			"min":[
				-0.3333333730697632,
				-0.28200000524520874,
				-0.2949792146682739
			],
			"type":"VEC3"
		},
		{
			"bufferView":13,
			"componentType":5126,
			"count":18,
			"type":"VEC3"
		},
		{
			"bufferView":14,
			"componentType":5126,
			"count":18,
			"type":"VEC2"
		},
		{
			"bufferView":15,
			"componentType":5123,
			"count":48,
			"type":"SCALAR"
		}
	],
	"bufferViews":[
		{
			"buffer":0,
			"byteLength":252,
			"byteOffset":0,
			"target":34962
		},
		{
			"buffer":0,
			"byteLength":252,
			"byteOffset":252,
			"target":34962
		},
		{
			"buffer":0,
			"byteLength":168,
			"byteOffset":504,
			"target":34962
		},
		{
			"buffer":0,
			"byteLength":144,
			"byteOffset":672,
			"target":34963
		},
		{
			"buffer":0,
			"byteLength":300,
			"byteOffset":816,
			"target":34962
		},
		{
			"buffer":0,
			"byteLength":300,
			"byteOffset":1116,
			"target":34962
		},
		{
			"buffer":0,
			"byteLength":200,
			"byteOffset":1416,
			"target":34962
		},
		{
			"buffer":0,
			"byteLength":168,
			"byteOffset":1616,
			"target":34963
		},
		{
			"buffer":0,
			"byteLength":144,
			"byteOffset":1784,
			"target":34962
		},
		{
			"buffer":0,
			"byteLength":144,
			"byteOffset":1928,
			"target":34962
		},
		{
			"buffer":0,
			"byteLength":96,
			"byteOffset":2072,
			"target":34962
		},
		{
			"buffer":0,
			"byteLength":48,
			"byteOffset":2168,
			"target":34963
		},
		{
			"buffer":0,
			"byteLength":216,
			"byteOffset":2216,
			"target":34962
		},
		{
			"buffer":0,
			"byteLength":216,
			"byteOffset":2432,
			"target":34962
		},
		{
			"buffer":0,
			"byteLength":144,
			"byteOffset":2648,
			"target":34962
		},
		{
			"buffer":0,
			"byteLength":96,
			"byteOffset":2792,
			"target":34963
		}
	],
	"samplers":[
		{
			"magFilter":9729,
			"minFilter":9987
		}
	],
	"buffers":[
		{
			"byteLength":2888,
			"uri":"scene2_small.bin"
		}
	]
}
