{
	"asset":{
		"generator":"Khronos glTF Blender I/O v3.6.27",
		"version":"2.0"
	},
	"scene":0,
	"scenes":[
		{
			"name":"Scene",
			"nodes":[
				0
			]
		}
	],
	"nodes":[
		{
			"mesh":0,
			"name":"tisch",
			"rotation":[
				0.7071068286895752,
				0,
				0,
				0.7071068286895752
			],
			"translation":[
				0,
				1,
				-0.10000000149011612
			]
		}
	],
	"materials":[
		{
			"alphaMode":"BLEND",
			"doubleSided":true,
			"name":"tischbein_material",
			"pbrMetallicRoughness":{
				"baseColorTexture":{
					"index":0
				},
				"metallicFactor":0,
				"roughnessFactor":0.5
			}
		},
		{
			"alphaMode":"BLEND",
			"doubleSided":true,
			"name":"tischplatte_material",
			"pbrMetallicRoughness":{
				"baseColorTexture":{
					"index":1
				},
				"metallicFactor":0,
				"roughnessFactor":0.5
			}
		},
		{
			"alphaMode":"BLEND",
			"doubleSided":true,
			"name":"tischfuss_material",
			"pbrMetallicRoughness":{
				"baseColorTexture":{
					"index":2
				},
				"metallicFactor":0,
				"roughnessFactor":0.5
			}
		},
		{
			"alphaMode":"BLEND",
			"doubleSided":true,
			"name":"stuhl_material",
			"pbrMetallicRoughness":{
				"baseColorTexture":{
					"index":3
				},
				"metallicFactor":0,
				"roughnessFactor":0.5
			}
		},
		{
			"alphaMode":"BLEND",
			"doubleSided":true,
			"name":"mann2_material.001",
			"pbrMetallicRoughness":{
				"baseColorTexture":{
					"index":4
				},
				"metallicFactor":0,
				"roughnessFactor":0.5
			}
		},
		{
			"alphaMode":"BLEND",
			"doubleSided":true,
			"name":"mann1_material",
			"pbrMetallicRoughness":{
				"baseColorTexture":{
					"index":5
				},
				"metallicFactor":0,
				"roughnessFactor":0.5
			}
		},
		{
			"alphaMode":"BLEND",
			"doubleSided":true,
			"name":"kind_material",
			"pbrMetallicRoughness":{
				"baseColorTexture":{
					"index":6
				},
				"metallicFactor":0,
				"roughnessFactor":0.5
			}
		},
		{
			"alphaMode":"BLEND",
			"doubleSided":true,
			"name":"bier1_material",
			"pbrMetallicRoughness":{
				"baseColorTexture":{
					"index":7
				},
				"metallicFactor":0,
				"roughnessFactor":0.5
			}
		},
		{
			"alphaMode":"BLEND",
			"doubleSided":true,
			"name":"bier2_material",
			"pbrMetallicRoughness":{
				"baseColorTexture":{
					"index":8
				},
				"metallicFactor":0,
				"roughnessFactor":0.5
			}
		},
		{
			"alphaMode":"BLEND",
			"doubleSided":true,
			"name":"bier3_material",
			"pbrMetallicRoughness":{
				"baseColorTexture":{
					"index":9
				},
				"metallicFactor":0,
				"roughnessFactor":0.5
			}
		},
		{
			"alphaMode":"BLEND",
			"doubleSided":true,
			"name":"bier4_material",
			"pbrMetallicRoughness":{
				"baseColorTexture":{
					"index":10
				},
				"metallicFactor":0,
				"roughnessFactor":0.5
			}
		},
		{
			"alphaMode":"BLEND",
			"doubleSided":true,
			"name":"wein_material",
			"pbrMetallicRoughness":{
				"baseColorTexture":{
					"index":11
				},
				"metallicFactor":0,
				"roughnessFactor":0.5
			}
		},
		{
			"alphaMode":"BLEND",
			"doubleSided":true,
			"name":"zitrone_material",
			"pbrMetallicRoughness":{
				"baseColorTexture":{
					"index":12
				},
				"metallicFactor":0,
				"roughnessFactor":0.5
			}
		}
	],
	"meshes":[
		{
			"name":"Plane.007",
			"primitives":[
				{
					"attributes":{
						"POSITION":0,
						"NORMAL":1,
						"TEXCOORD_0":2
					},
					"indices":3,
					"material":0
				},
				{
					"attributes":{
						"POSITION":4,
						"NORMAL":5,
						"TEXCOORD_0":6
					},
					"indices":3,
					"material":1
				},
				{
					"attributes":{
						"POSITION":7,
						"NORMAL":8,
						"TEXCOORD_0":9
					},
					"indices":10,
					"material":2
				},
				{
					"attributes":{
						"POSITION":11,
						"NORMAL":12,
						"TEXCOORD_0":13
					},
					"indices":10,
					"material":3
				},
				{
					"attributes":{
						"POSITION":14,
						"NORMAL":15,
						"TEXCOORD_0":16
					},
					"indices":3,
					"material":4
				},
				{
					"attributes":{
						"POSITION":17,
						"NORMAL":18,
						"TEXCOORD_0":19
					},
					"indices":3,
					"material":5
				},
				{
					"attributes":{
						"POSITION":20,
						"NORMAL":21,
						"TEXCOORD_0":22
					},
					"indices":3,
					"material":6
				},
				{
					"attributes":{
						"POSITION":23,
						"NORMAL":24,
						"TEXCOORD_0":25
					},
					"indices":3,
					"material":7
				},
				{
					"attributes":{
						"POSITION":26,
						"NORMAL":27,
						"TEXCOORD_0":28
					},
					"indices":3,
					"material":8
				},
				{
					"attributes":{
						"POSITION":29,
						"NORMAL":30,
						"TEXCOORD_0":31
					},
					"indices":3,
					"material":9
				},
				{
					"attributes":{
						"POSITION":32,
						"NORMAL":33,
						"TEXCOORD_0":34
					},
					"indices":3,
					"material":10
				},
				{
					"attributes":{
						"POSITION":35,
						"NORMAL":36,
						"TEXCOORD_0":37
					},
					"indices":38,
					"material":11
				},
				{
					"attributes":{
						"POSITION":39,
						"NORMAL":40,
						"TEXCOORD_0":41
					},
					"indices":3,
					"material":12
				}
			]
		}
	],
	"textures":[
		{
			"sampler":0,
			"source":0
		},
		{
			"sampler":0,
			"source":1
		},
		{
			"sampler":0,
			"source":2
		},
		{
			"sampler":0,
			"source":3
		},
		{
			"sampler":0,
			"source":4
		},
		{
			"sampler":0,
			"source":5
		},
		{
			"sampler":0,
			"source":6
		},
		{
			"sampler":0,
			"source":7
		},
		{
			"sampler":0,
			"source":8
		},
		{
			"sampler":0,
			"source":9
		},
		{
			"sampler":0,
			"source":10
		},
		{
			"sampler":0,
			"source":11
		},
		{
			"sampler":0,
			"source":12
		}
	],
	"images":[
		{
			"mimeType":"image/png",
			"name":"tischbeine",
			"uri":"tischbeine.png"
		},
		{
			"mimeType":"image/png",
			"name":"tischplatte",
			"uri":"tischplatte.png"
		},
		{
			"mimeType":"image/png",
			"name":"tischfuss",
			"uri":"tischfuss.png"
		},
		{
			"mimeType":"image/png",
			"name":"stuhl",
			"uri":"stuhl.png"
		},
		{
			"mimeType":"image/png",
			"name":"mann2",
			"uri":"mann2.png"
		},
		{
			"mimeType":"image/png",
			"name":"mann1",
			"uri":"mann1.png"
		},
		{
			"mimeType":"image/png",
			"name":"child",
			"uri":"child.png"
		},
		{
			"mimeType":"image/png",
			"name":"bier1",
			"uri":"bier1.png"
		},
		{
			"mimeType":"image/png",
			"name":"bier2",
			"uri":"bier2.png"
		},
		{
			"mimeType":"image/png",
			"name":"bier3",
			"uri":"bier3.png"
		},
		{
			"mimeType":"image/png",
			"name":"bier4",
			"uri":"bier4.png"
		},
		{
			"mimeType":"image/png",
			"name":"wein",
			"uri":"wein.png"
		},
		{
			"mimeType":"image/png",
			"name":"zitrone",
			"uri":"zitrone.png"
		}
	],
	"accessors":[
		{
			"bufferView":0,
			"componentType":5126,
			"count":4,
			"max":[
				1,
				0,
				1
			],
			"min":[
				-1,
				0,
				-1
			],
			"type":"VEC3"
		},
		{
			"bufferView":1,
			"componentType":5126,
			"count":4,
			"type":"VEC3"
		},
		{
			"bufferView":2,
			"componentType":5126,
			"count":4,
			"type":"VEC2"
		},
		{
			"bufferView":3,
			"componentType":5123,
			"count":6,
			"type":"SCALAR"
		},
		{
			"bufferView":4,
			"componentType":5126,
			"count":4,
			"max":[
				1,
				1,
				0.6530000567436218
			],
			"min":[
				-1,
				-1,
				0.6529999375343323
			],
			"type":"VEC3"
		},
		{
			"bufferView":5,
			"componentType":5126,
			"count":4,
			"type":"VEC3"
		},
		{
			"bufferView":6,
			"componentType":5126,
			"count":4,
			"type":"VEC2"
		},
		{
			"bufferView":7,
			"componentType":5126,
			"count":8,
			"max":[
				0.5600000619888306,
				1,
				1
			],
			"min":[
				-0.5600000619888306,
				-1,
				-1
			],
			"type":"VEC3"
		},
		{
			"bufferView":8,
			"componentType":5126,
			"count":8,
			"type":"VEC3"
		},
		{
			"bufferView":9,
			"componentType":5126,
			"count":8,
			"type":"VEC2"
		},
		{
			"bufferView":10,
			"componentType":5123,
			"count":12,
			"type":"SCALAR"
		},
		{
			"bufferView":11,
			"componentType":5126,
			"count":8,
			"max":[
				1.2999999523162842,
				0.10000000149011612,
				1.0000001192092896
			],
			"min":[
				-1.2853786945343018,
				0.10000000149011612,
				-1.0000001192092896
			],
			"type":"VEC3"
		},
		{
			"bufferView":12,
			"componentType":5126,
			"count":8,
			"type":"VEC3"
		},
		{
			"bufferView":13,
			"componentType":5126,
			"count":8,
			"type":"VEC2"
		},
		{
			"bufferView":14,
			"componentType":5126,
			"count":4,
			"max":[
				1.2999999523162842,
				0.09000000357627869,
				1
			],
			"min":[
				-0.699999988079071,
				0.09000000357627869,
				-1
			],
			"type":"VEC3"
		},
		{
			"bufferView":15,
			"componentType":5126,
			"count":4,
			"type":"VEC3"
		},
		{
			"bufferView":16,
			"componentType":5126,
			"count":4,
			"type":"VEC2"
		},
		{
			"bufferView":17,
			"componentType":5126,
			"count":4,
			"max":[
				1,
				0.5,
				1
			],
			"min":[
				-1,
				0.5,
				-1
			],
			"type":"VEC3"
		},
		{
			"bufferView":18,
			"componentType":5126,
			"count":4,
			"type":"VEC3"
		},
		{
			"bufferView":19,
			"componentType":5126,
			"count":4,
			"type":"VEC2"
		},
		{
			"bufferView":20,
			"componentType":5126,
			"count":4,
			"max":[
				0.6671574115753174,
				-0.30000001192092896,
				1
			],
			"min":[
				-1.3328425884246826,
				-0.30000001192092896,
				-1
			],
			"type":"VEC3"
		},
		{
			"bufferView":21,
			"componentType":5126,
			"count":4,
			"type":"VEC3"
		},
		{
			"bufferView":22,
			"componentType":5126,
			"count":4,
			"type":"VEC2"
		},
		{
			"bufferView":23,
			"componentType":5126,
			"count":4,
			"max":[
				0.3104066848754883,
				0.09684683382511139,
				0.6538008451461792
			],
			"min":[
				-1.6895933151245117,
				0.09684683382511139,
				-1.3461991548538208
			],
			"type":"VEC3"
		},
		{
			"bufferView":24,
			"componentType":5126,
			"count":4,
			"type":"VEC3"
		},
		{
			"bufferView":25,
			"componentType":5126,
			"count":4,
			"type":"VEC2"
		},
		{
			"bufferView":26,
			"componentType":5126,
			"count":4,
			"max":[
				1.547195315361023,
				0.11587046086788177,
				0.6538008451461792
			],
			"min":[
				-0.45280468463897705,
				0.11587046086788177,
				-1.3461991548538208
			],
			"type":"VEC3"
		},
		{
			"bufferView":27,
			"componentType":5126,
			"count":4,
			"type":"VEC3"
		},
		{
			"bufferView":28,
			"componentType":5126,
			"count":4,
			"type":"VEC2"
		},
		{
			"bufferView":29,
			"componentType":5126,
			"count":4,
			"max":[
				0.9873241186141968,
				0.17384064197540283,
				0.6538008451461792
			],
			"min":[
				-1.0126758813858032,
				0.17384064197540283,
				-1.3461991548538208
			],
			"type":"VEC3"
		},
		{
			"bufferView":30,
			"componentType":5126,
			"count":4,
			"type":"VEC3"
		},
		{
			"bufferView":31,
			"componentType":5126,
			"count":4,
			"type":"VEC2"
		},
		{
			"bufferView":32,
			"componentType":5126,
			"count":4,
			"max":[
				1.3513137102127075,
				0.030225373804569244,
				0.6538008451461792
			],
			"min":[
				-0.6486862897872925,
				0.030225373804569244,
				-1.3461991548538208
			],
			"type":"VEC3"
		},
		{
			"bufferView":33,
			"componentType":5126,
			"count":4,
			"type":"VEC3"
		},
		{
			"bufferView":34,
			"componentType":5126,
			"count":4,
			"type":"VEC2"
		},
		{
			"bufferView":35,
			"componentType":5126,
			"count":12,
			"max":[
				1.7102419137954712,
				0.04569539055228233,
				0.6538008451461792
			],
			"min":[
				-1.7605745792388916,
				-0.10277695208787918,
				-1.3461991548538208
			],
			"type":"VEC3"
		},
		{
			"bufferView":36,
			"componentType":5126,
			"count":12,
			"type":"VEC3"
		},
		{
			"bufferView":37,
			"componentType":5126,
			"count":12,
			"type":"VEC2"
		},
		{
			"bufferView":38,
			"componentType":5123,
			"count":18,
			"type":"SCALAR"
		},
		{
			"bufferView":39,
			"componentType":5126,
			"count":4,
			"max":[
				1,
				-0.01947147399187088,
				0.6538008451461792
			],
			"min":[
				-1,
				-0.01947147399187088,
				-1.3461991548538208
			],
			"type":"VEC3"
		},
		{
			"bufferView":40,
			"componentType":5126,
			"count":4,
			"type":"VEC3"
		},
		{
			"bufferView":41,
			"componentType":5126,
			"count":4,
			"type":"VEC2"
		}
	],
	"bufferViews":[
		{
			"buffer":0,
			"byteLength":48,
			"byteOffset":0,
			"target":34962
		},
		{
			"buffer":0,
			"byteLength":48,
			"byteOffset":48,
			"target":34962
		},
		{
			"buffer":0,
			"byteLength":32,
			"byteOffset":96,
			"target":34962
		},
		{
			"buffer":0,
			"byteLength":12,
			"byteOffset":128,
			"target":34963
		},
		{
			"buffer":0,
			"byteLength":48,
			"byteOffset":140,
			"target":34962
		},
		{
			"buffer":0,
			"byteLength":48,
			"byteOffset":188,
			"target":34962
		},
		{
			"buffer":0,
			"byteLength":32,
			"byteOffset":236,
			"target":34962
		},
		{
			"buffer":0,
			"byteLength":96,
			"byteOffset":268,
			"target":34962
		},
		{
			"buffer":0,
			"byteLength":96,
			"byteOffset":364,
			"target":34962
		},
		{
			"buffer":0,
			"byteLength":64,
			"byteOffset":460,
			"target":34962
		},
		{
			"buffer":0,
			"byteLength":24,
			"byteOffset":524,
			"target":34963
		},
		{
			"buffer":0,
			"byteLength":96,
			"byteOffset":548,
			"target":34962
		},
		{
			"buffer":0,
			"byteLength":96,
			"byteOffset":644,
			"target":34962
		},
		{
			"buffer":0,
			"byteLength":64,
			"byteOffset":740,
			"target":34962
		},
		{
			"buffer":0,
			"byteLength":48,
			"byteOffset":804,
			"target":34962
		},
		{
			"buffer":0,
			"byteLength":48,
			"byteOffset":852,
			"target":34962
		},
		{
			"buffer":0,
			"byteLength":32,
			"byteOffset":900,
			"target":34962
		},
		{
			"buffer":0,
			"byteLength":48,
			"byteOffset":932,
			"target":34962
		},
		{
			"buffer":0,
			"byteLength":48,
			"byteOffset":980,
			"target":34962
		},
		{
			"buffer":0,
			"byteLength":32,
			"byteOffset":1028,
			"target":34962
		},
		{
			"buffer":0,
			"byteLength":48,
			"byteOffset":1060,
			"target":34962
		},
		{
			"buffer":0,
			"byteLength":48,
			"byteOffset":1108,
			"target":34962
		},
		{
			"buffer":0,
			"byteLength":32,
			"byteOffset":1156,
			"target":34962
		},
		{
			"buffer":0,
			"byteLength":48,
			"byteOffset":1188,
			"target":34962
		},
		{
			"buffer":0,
			"byteLength":48,
			"byteOffset":1236,
			"target":34962
		},
		{
			"buffer":0,
			"byteLength":32,
			"byteOffset":1284,
			"target":34962
		},
		{
			"buffer":0,
			"byteLength":48,
			"byteOffset":1316,
			"target":34962
		},
		{
			"buffer":0,
			"byteLength":48,
			"byteOffset":1364,
			"target":34962
		},
		{
			"buffer":0,
			"byteLength":32,
			"byteOffset":1412,
			"target":34962
		},
		{
			"buffer":0,
			"byteLength":48,
			"byteOffset":1444,
			"target":34962
		},
		{
			"buffer":0,
			"byteLength":48,
			"byteOffset":1492,
			"target":34962
		},
		{
			"buffer":0,
			"byteLength":32,
			"byteOffset":1540,
			"target":34962
		},
		{
			"buffer":0,
			"byteLength":48,
			"byteOffset":1572,
			"target":34962
		},
		{
			"buffer":0,
			"byteLength":48,
			"byteOffset":1620,
			"target":34962
		},
		{
			"buffer":0,
			"byteLength":32,
			"byteOffset":1668,
			"target":34962
		},
		{
			"buffer":0,
			"byteLength":144,
			"byteOffset":1700,
			"target":34962
		},
		{
			"buffer":0,
			"byteLength":144,
			"byteOffset":1844,
			"target":34962
		},
		{
			"buffer":0,
			"byteLength":96,
			"byteOffset":1988,
			"target":34962
		},
		{
			"buffer":0,
			"byteLength":36,
			"byteOffset":2084,
			"target":34963
		},
		{
			"buffer":0,
			"byteLength":48,
			"byteOffset":2120,
			"target":34962
		},
		{
			"buffer":0,
			"byteLength":48,
			"byteOffset":2168,
			"target":34962
		},
		{
			"buffer":0,
			"byteLength":32,
			"byteOffset":2216,
			"target":34962
		}
	],
	"samplers":[
		{
			"magFilter":9729,
			"minFilter":9987
		}
	],
	"buffers":[
		{
			"byteLength":2248,
			"uri":"scene2.bin"
		}
	]
}
