{
	"asset":{
		"generator":"Khronos glTF Blender I/O v3.6.27",
		"version":"2.0"
	},
	"scene":0,
	"scenes":[
		{
			"name":"Scene",
			"nodes":[
				0
			]
		}
	],
	"nodes":[
		{
			"mesh":0,
			"name":"x_layer",
			"rotation":[
				0.7071068286895752,
				0,
				0,
				0.7071068286895752
			],
			"translation":[
				0,
				1,
				0
			]
		}
	],
	"materials":[
		{
			"alphaCutoff":0.25,
			"alphaMode":"MASK",
			"doubleSided":true,
			"name":"scene3_x_layer_material",
			"pbrMetallicRoughness":{
				"baseColorTexture":{
					"index":0
				},
				"metallicFactor":0,
				"roughnessFactor":0.5
			}
		},
		{
			"alphaCutoff":0.25,
			"alphaMode":"MASK",
			"doubleSided":true,
			"name":"tischplatte_material",
			"pbrMetallicRoughness":{
				"baseColorTexture":{
					"index":1
				},
				"metallicFactor":0,
				"roughnessFactor":0.5
			}
		},
		{
			"alphaCutoff":0.25,
			"alphaMode":"MASK",
			"doubleSided":true,
			"name":"tischfuss_material",
			"pbrMetallicRoughness":{
				"baseColorTexture":{
					"index":2
				},
				"metallicFactor":0,
				"roughnessFactor":0.5
			}
		}
	],
	"meshes":[
		{
			"name":"Plane",
			"primitives":[
				{
					"attributes":{
						"POSITION":0,
						"NORMAL":1,
						"TEXCOORD_0":2
					},
					"indices":3,
					"material":0
				},
				{
					"attributes":{
						"POSITION":4,
						"NORMAL":5,
						"TEXCOORD_0":6
					},
					"indices":7,
					"material":1
				},
				{
					"attributes":{
						"POSITION":8,
						"NORMAL":9,
						"TEXCOORD_0":10
					},
					"indices":11,
					"material":2
				}
			]
		}
	],
	"textures":[
		{
			"sampler":0,
			"source":0
		},
		{
			"sampler":0,
			"source":1
		},
		{
			"sampler":0,
			"source":2
		}
	],
	"images":[
		{
			"mimeType":"image/png",
			"name":"scene3_x_layer",
			"uri":"scene3_x_layer.png"
		},
		{
			"mimeType":"image/png",
			"name":"tischplatte",
			"uri":"tischplatte.png"
		},
		{
			"mimeType":"image/png",
			"name":"Tischfuss",
			"uri":"Tischfuss.png"
		}
	],
	"accessors":[
		{
			"bufferView":0,
			"componentType":5126,
			"count":22,
			"max":[
				1,
				0,
				1
			],
			"min":[
				-1,
				0,
				0.36839473247528076
			],
			"type":"VEC3"
		},
		{
			"bufferView":1,
			"componentType":5126,
			"count":22,
			"type":"VEC3"
		},
		{
			"bufferView":2,
			"componentType":5126,
			"count":22,
			"type":"VEC2"
		},
		{
			"bufferView":3,
			"componentType":5123,
			"count":60,
			"type":"SCALAR"
		},
		{
			"bufferView":4,
			"componentType":5126,
			"count":4,
			"max":[
				0.7975881099700928,
				0.23272956907749176,
				0.7162996530532837
			],
			"min":[
				-0.7890918254852295,
				-0.22009718418121338,
				0.7162996530532837
			],
			"type":"VEC3"
		},
		{
			"bufferView":5,
			"componentType":5126,
			"count":4,
			"type":"VEC3"
		},
		{
			"bufferView":6,
			"componentType":5126,
			"count":4,
			"type":"VEC2"
		},
		{
			"bufferView":7,
			"componentType":5123,
			"count":6,
			"type":"SCALAR"
		},
		{
			"bufferView":8,
			"componentType":5126,
			"count":8,
			"max":[
				0.44359442591667175,
				0.15053413808345795,
				1
			],
			"min":[
				-0.46409255266189575,
				-0.14614738523960114,
				0.9196859002113342
			],
			"type":"VEC3"
		},
		{
			"bufferView":9,
			"componentType":5126,
			"count":8,
			"type":"VEC3"
		},
		{
			"bufferView":10,
			"componentType":5126,
			"count":8,
			"type":"VEC2"
		},
		{
			"bufferView":11,
			"componentType":5123,
			"count":12,
			"type":"SCALAR"
		}
	],
	"bufferViews":[
		{
			"buffer":0,
			"byteLength":264,
			"byteOffset":0,
			"target":34962
		},
		{
			"buffer":0,
			"byteLength":264,
			"byteOffset":264,
			"target":34962
		},
		{
			"buffer":0,
			"byteLength":176,
			"byteOffset":528,
			"target":34962
		},
		{
			"buffer":0,
			"byteLength":120,
			"byteOffset":704,
			"target":34963
		},
		{
			"buffer":0,
			"byteLength":48,
			"byteOffset":824,
			"target":34962
		},
		{
			"buffer":0,
			"byteLength":48,
			"byteOffset":872,
			"target":34962
		},
		{
			"buffer":0,
			"byteLength":32,
			"byteOffset":920,
			"target":34962
		},
		{
			"buffer":0,
			"byteLength":12,
			"byteOffset":952,
			"target":34963
		},
		{
			"buffer":0,
			"byteLength":96,
			"byteOffset":964,
			"target":34962
		},
		{
			"buffer":0,
			"byteLength":96,
			"byteOffset":1060,
			"target":34962
		},
		{
			"buffer":0,
			"byteLength":64,
			"byteOffset":1156,
			"target":34962
		},
		{
			"buffer":0,
			"byteLength":24,
			"byteOffset":1220,
			"target":34963
		}
	],
	"samplers":[
		{
			"magFilter":9729,
			"minFilter":9987
		}
	],
	"buffers":[
		{
			"byteLength":1244,
			"uri":"scene3.bin"
		}
	]
}
